<!DOCTYPE svg PUBLIC "-//W3C//DTD SVG 1.1//EN" "http://www.w3.org/Graphics/SVG/1.1/DTD/svg11.dtd">
<!-- Uploaded to: SVG Repo, www.svgrepo.com, Transformed by: SVG Repo Mixer Tools -->
<svg width="223px" height="223px" viewBox="-46.26 -46.26 285.28 285.28" xmlns="http://www.w3.org/2000/svg" fill="#0d0c0c" stroke="#0d0c0c" stroke-width="0.00192756">
<g id="SVGRepo_bgCarrier" stroke-width="0" transform="translate(0,0), scale(1)">
<rect x="-46.26" y="-46.26" width="285.28" height="285.28" rx="142.64" fill="white" strokewidth="0"/>
</g>
<g id="SVGRepo_tracerCarrier" stroke-linecap="round" stroke-linejoin="round" stroke="#CCCCCC" stroke-width="1.5420479999999999"/>
<g id="SVGRepo_iconCarrier"> <g fill-rule="evenodd" clip-rule="evenodd"> <path fill="#ffffff" d="M0 0h192.756v192.756H0V0z"/> <path d="M42.741 71.477c-9.881 11.604-19.355 25.994-19.45 36.75-.037 4.047 1.255 7.58 4.354 10.256 4.46 3.854 9.374 5.213 14.264 5.221 7.146.01 14.242-2.873 19.798-5.096 9.357-3.742 112.79-48.659 112.79-48.659.998-.5.811-1.123-.438-.812-.504.126-112.603 30.505-112.603 30.505a24.771 24.771 0 0 1-6.524.934c-8.615.051-16.281-4.731-16.219-14.808.024-3.943 1.231-8.698 4.028-14.291z"/> </g> </g>
</svg>